<svg id="Layer_1" data-name="Layer 1" xmlns="http://www.w3.org/2000/svg" xmlns:xlink="http://www.w3.org/1999/xlink" viewBox="0 0 2994.55 2994.55"><defs><style>.cls-1,.cls-5,.cls-7{opacity:0.8;}.cls-1{fill:url(#linear-gradient);}.cls-2,.cls-3,.cls-4,.cls-8,.cls-9{opacity:0.91;}.cls-2{fill:url(#linear-gradient-2);}.cls-3{fill:url(#linear-gradient-3);}.cls-4{fill:url(#linear-gradient-4);}.cls-5{fill:url(#linear-gradient-5);}.cls-6{opacity:0.46;}.cls-10,.cls-6{font-size:504.92px;fill:#fff;font-family:BrandonGrotesque-Black, Brandon Grotesque;font-weight:800;}.cls-7{fill:url(#linear-gradient-6);}.cls-8{fill:none;}.cls-9{fill:url(#linear-gradient-7);}</style><linearGradient id="linear-gradient" x1="424.57" y1="1884.02" x2="2564.52" y2="1884.02" gradientUnits="userSpaceOnUse"><stop offset="0" stop-color="#b9fff8"/><stop offset="1" stop-color="#8bb8ff"/></linearGradient><linearGradient id="linear-gradient-2" x1="285.95" y1="1601.41" x2="286.29" y2="1601.41" gradientUnits="userSpaceOnUse"><stop offset="0" stop-color="#5cd1ff"/><stop offset="1" stop-color="#a45cff"/></linearGradient><linearGradient id="linear-gradient-3" x1="424.57" y1="1063.39" x2="2564.07" y2="1063.39" xlink:href="#linear-gradient-2"/><linearGradient id="linear-gradient-4" x1="424.57" y1="1248.65" x2="2564.52" y2="1248.65" xlink:href="#linear-gradient"/><linearGradient id="linear-gradient-5" x1="424.57" y1="1693.73" x2="2564.52" y2="1693.73" xlink:href="#linear-gradient"/><linearGradient id="linear-gradient-6" x1="425.01" y1="2051.78" x2="2564.08" y2="2051.78" xlink:href="#linear-gradient-2"/><linearGradient id="linear-gradient-7" x1="425.02" y1="1559.02" x2="2564.07" y2="1559.02" xlink:href="#linear-gradient-2"/></defs><path class="cls-1" d="M1630,2382l859-372.57c101.25-43.91,100.62-207.87-1-250.78l-904.11-381.81a232.42,232.42,0,0,0-179.11-1.37L502.59,1740.85C400.5,1782.2,398,1946.16,498.72,1991.6L1359.78,2380C1446.47,2419.07,1542.81,2419.8,1630,2382Z"/><path class="cls-2" d="M286.29,1596.49v9.83c-.12-.83-.25-1.67-.34-2.52Q286.12,1600.23,286.29,1596.49Z"/><path class="cls-3" d="M2564.07,1104.49v413.9a156.15,156.15,0,0,1-1,18.23c-4.67-75.46-20.46-233.27-47.35-311.31-6.39-18.52-13.39-32.53-21-39.89a22.43,22.43,0,0,0-6.71-4.64l-904.11-116.47a232.37,232.37,0,0,0-179.11-1.36L502.6,1163a26.45,26.45,0,0,0-8.28,5.62c-7.95,7.61-15.22,21.13-21.82,38.76-27.54,73.62-43.27,219-47,304.77V1116c-.14-1.42-.27-2.84-.38-4.27q0-.46-.06-.93c0-.4-.06-.78-.1-1.18,0-.67-.09-1.36-.12-2v-.08c-.07-1.18-.12-2.36-.15-3.56,0-.2,0-.4,0-.6-.05-1.4-.07-2.78-.07-4.18q0-5.94.45-11.87h0q.5-6.74,1.59-13.4v0c4.16-25.66,14.72-50.08,31.64-69.4.53-.62,1.07-1.22,1.62-1.82q3.27-3.6,6.86-6.94c1.78-1.67,3.62-3.29,5.53-4.84a117.3,117.3,0,0,1,30.34-18l902.15-365.38a232.42,232.42,0,0,1,179.11,1.37L2488,990.61c1.59.68,3.16,1.39,4.71,2.11,1.3.62,2.59,1.26,3.86,1.91q5,2.63,9.65,5.62c.59.38,1.2.78,1.78,1.18a120.37,120.37,0,0,1,34.92,36.44c.83,1.32,1.64,2.65,2.42,4a138.16,138.16,0,0,1,7.7,15.63c.25.58.49,1.18.73,1.78.59,1.46,1.14,2.91,1.67,4.36.17.46.33.89.47,1.35,1.51,4.25,2.82,8.6,3.93,13,.18.68.34,1.37.49,2q.59,2.37,1,4.74l.48,2.4c.06.4.14.8.22,1.22v0c.21,1.11.38,2.22.56,3.33.3,2,.57,3.87.79,5.82.08.54.15,1.09.2,1.63.07.73.15,1.47.22,2.2s.13,1.33.17,2v0C2564,1103.76,2564.06,1104.14,2564.07,1104.49Z"/><path class="cls-4" d="M2564.52,1116.23q0,5.94-.45,11.85c-2.8,37.44-18.9,73.66-48.37,97.23a117.64,117.64,0,0,1-26.76,16.08l-859,637.91c-87.12,37.8-183.46,37.08-270.16-2L498.72,1223.56a119,119,0,0,1-26.22-16.19c-27.64-22.55-43.27-56.23-47-91.41-.14-1.42-.27-2.84-.38-4.27a6.33,6.33,0,0,1-.06-.64c0-.49-.06-1-.1-1.47,0-.67-.09-1.36-.12-2v-.08c-.07-1.18-.12-2.36-.15-3.56,0-.2,0-.4,0-.6-.05-1.4-.07-2.78-.07-4.18q0-5.94.45-11.87h0q.5-6.74,1.59-13.4v0c4.16-25.66,14.72-50.08,31.64-69.4.53-.62,1.07-1.22,1.62-1.82q3.27-3.6,6.86-6.94c1.78-1.65,3.62-3.27,5.53-4.84a117.3,117.3,0,0,1,30.34-18l902.15-365.38a232.42,232.42,0,0,1,179.11,1.37L2488,990.61c1.59.68,3.16,1.39,4.71,2.11,1.3.62,2.59,1.26,3.86,1.91q5,2.63,9.65,5.62c.59.38,1.2.78,1.78,1.18a120.37,120.37,0,0,1,34.92,36.44c.83,1.32,1.64,2.65,2.42,4a138.16,138.16,0,0,1,7.7,15.63c.25.58.49,1.18.73,1.78.59,1.46,1.14,2.91,1.67,4.36.17.46.33.89.47,1.35,1.51,4.25,2.82,8.6,3.93,13,.18.68.34,1.37.49,2q.59,2.37,1,4.74l.48,2.4c.06.4.14.8.22,1.22v0c.21,1.11.38,2.22.56,3.33.3,2,.57,3.87.79,5.82.08.54.15,1.09.2,1.63.07.73.15,1.47.22,2.2s.13,1.33.17,2v0c0,.29.05.58.08.87,0,.65.1,1.31.13,2a4.49,4.49,0,0,1,0,.51c.1,1.53.16,3.06.21,4.6S2564.52,1114.61,2564.52,1116.23Z"/><path class="cls-5" d="M1630,2191.71l859-372.57c101.25-43.91,100.62-207.88-1-250.78l-904.11-381.81a232.42,232.42,0,0,0-179.11-1.37L502.59,1550.56c-102.09,41.35-104.62,205.31-3.87,250.75l861.06,388.37C1446.47,2228.78,1542.81,2229.51,1630,2191.71Z"/><text class="cls-6" transform="matrix(2.83, 0.15, -0.04, 1, 1085.73, 1264.49)">S</text><path class="cls-7" d="M2564.08,1884c.08,51.72-25.08,103.51-75.59,125.41l-859,372.57c-87.14,37.8-183.48,37.07-270.17-2L498.28,1991.6c-44.15-19.91-68.47-62.57-73.27-107.71V1693.73c4.8,45.13,29.12,87.79,73.27,107.7l861.06,388.37c86.69,39.1,183,39.83,270.17,2l859-372.57c50.51-21.91,75.67-73.7,75.59-125.42Z"/><path class="cls-8" d="M2564.07,1063.18v41.11c-.08-1-.16-1.93-.25-2.89-.07-.73-.15-1.47-.22-2.2,0-.54-.12-1.09-.2-1.63-.22-2-.49-3.87-.79-5.82-.18-1.11-.35-2.22-.56-3.33v0A157.57,157.57,0,0,0,2564.07,1063.18Z"/><path class="cls-9" d="M2564.07,1104.29v414.1a156.15,156.15,0,0,1-1,18.23c-5.16,45.31-30,87.87-74.56,107.21l-859,372.55c-87.13,37.81-183.48,37.08-270.17-2L498.28,1626c-42.94-19.35-67.11-60.26-72.82-104-.11-.83-.22-1.67-.3-2.52-.06-.38-.09-.78-.14-1.17v-431q.5-6.74,1.59-13.4c7.09,39.58,29.59,75.91,67.71,94.78,1.3.63,2.62,1.27,4,1.87l861.06,388.37c86.69,39.11,183,39.83,270.17,2l859-372.56c2.12-.9,4.17-1.89,6.19-2.9,38.37-19.3,60.82-56.61,67.37-97,.21,1.11.38,2.22.56,3.33.3,2,.57,3.87.79,5.82.08.54.15,1.09.2,1.63.07.73.15,1.47.22,2.2s.13,1.33.17,2v0C2564,1103.71,2564,1104,2564.07,1104.29Z"/><text class="cls-10" transform="matrix(2.83, 0.15, -0.04, 1, 1086, 1204.75)">S</text></svg>