<svg xmlns="http://www.w3.org/2000/svg" xmlns:xlink="http://www.w3.org/1999/xlink" viewBox="0 0 5947.87 1717.93"><defs><style>.cls-1{fill:url(#linear-gradient);}.cls-2,.cls-5,.cls-7{opacity:0.8;}.cls-2{fill:url(#linear-gradient-2);}.cls-3,.cls-4,.cls-8,.cls-9{opacity:0.91;}.cls-3{fill:url(#linear-gradient-3);}.cls-4{fill:url(#linear-gradient-4);}.cls-5{fill:url(#linear-gradient-5);}.cls-6{opacity:0.46;}.cls-14,.cls-6{font-size:476.69px;}.cls-11,.cls-12,.cls-13,.cls-14,.cls-16,.cls-6{fill:#fff;}.cls-14,.cls-16,.cls-6{font-family:BrandonGrotesque-Black, Brandon Grotesque;font-weight:800;}.cls-7{fill:url(#linear-gradient-6);}.cls-10,.cls-15,.cls-8{fill:none;}.cls-9{fill:url(#linear-gradient-7);}.cls-10,.cls-15{stroke:#fff;stroke-linecap:round;stroke-linejoin:round;stroke-width:27px;}.cls-10{opacity:0.41;}.cls-11{opacity:0.25;}.cls-12{opacity:0.63;}.cls-16{font-size:605.68px;letter-spacing:0.08em;}.cls-17{letter-spacing:0.06em;}.cls-18{letter-spacing:0.08em;}.cls-19{letter-spacing:0.07em;}</style><linearGradient id="linear-gradient" x1="800.81" y1="858.97" x2="5947.87" y2="858.97" gradientUnits="userSpaceOnUse"><stop offset="0" stop-color="#5cd1ff"/><stop offset="1" stop-color="#a45cff"/></linearGradient><linearGradient id="linear-gradient-2" y1="1221.51" x2="2020.31" y2="1221.51" gradientUnits="userSpaceOnUse"><stop offset="0" stop-color="#b9fff8"/><stop offset="1" stop-color="#8bb8ff"/></linearGradient><linearGradient id="linear-gradient-3" x1="0" y1="446.77" x2="2019.88" y2="446.77" xlink:href="#linear-gradient"/><linearGradient id="linear-gradient-4" x1="0" y1="621.67" x2="2020.3" y2="621.67" xlink:href="#linear-gradient-2"/><linearGradient id="linear-gradient-5" x1="0" y1="1041.86" x2="2020.31" y2="1041.86" xlink:href="#linear-gradient-2"/><linearGradient id="linear-gradient-6" x1="0.42" y1="1379.89" x2="2019.89" y2="1379.89" xlink:href="#linear-gradient"/><linearGradient id="linear-gradient-7" x1="0.42" y1="914.69" x2="2019.88" y2="914.69" xlink:href="#linear-gradient"/></defs><g id="Layer_2" data-name="Layer 2"><g id="Layer_1-2" data-name="Layer 1"><rect class="cls-1" x="800.81" y="465.57" width="5147.06" height="786.8"/><path class="cls-2" d="M1138,1691.65l811-351.73c95.59-41.47,95-196.26-.91-236.76L1094.47,742.69a219.38,219.38,0,0,0-169.09-1.29L73.66,1086.35c-96.38,39-98.78,193.83-3.66,236.73l812.92,366.66C964.77,1726.65,1055.72,1727.34,1138,1691.65Z"/><path class="cls-3" d="M2019.88,485.57V876.33a147.56,147.56,0,0,1-1,17.21c-4.41-71.24-19.32-220.24-44.7-293.91-6-17.48-12.64-30.71-19.85-37.66a21.06,21.06,0,0,0-6.34-4.38l-853.55-110a219.41,219.41,0,0,0-169.1-1.29L73.67,540.8a25,25,0,0,0-7.82,5.3c-7.51,7.19-14.37,19.95-20.6,36.6C19.25,652.2,4.4,789.41.84,870.43v-374c-.13-1.34-.25-2.67-.36-4,0-.29,0-.58-.06-.87l-.09-1.12c0-.63-.09-1.29-.12-1.94v-.07c-.06-1.11-.1-2.23-.13-3.36a5.43,5.43,0,0,1,0-.57c0-1.32-.06-2.62-.06-3.94q0-5.61.42-11.21h0c.32-4.24.81-8.46,1.5-12.65h0c3.94-24.23,13.91-47.29,29.88-65.53q.73-.87,1.53-1.71,3.09-3.4,6.47-6.56,2.52-2.37,5.22-4.56a110.57,110.57,0,0,1,28.65-17L925.38,16.31a219.41,219.41,0,0,1,169.1,1.29L1948,378.06c1.51.63,3,1.3,4.45,2,1.23.58,2.45,1.18,3.65,1.8q4.72,2.47,9.11,5.3l1.68,1.12a113.72,113.72,0,0,1,33,34.4c.78,1.25,1.54,2.5,2.28,3.79a127.66,127.66,0,0,1,7.26,14.75c.24.55.47,1.12.69,1.69.56,1.37,1.09,2.74,1.58,4.11.17.43.32.84.45,1.27,1.43,4,2.66,8.12,3.71,12.27.16.64.32,1.29.46,1.92.37,1.5.7,3,1,4.48l.45,2.27c.06.37.13.75.21,1.15v0c.19,1.05.36,2.09.52,3.14.29,1.84.54,3.65.75,5.49.08.51.14,1,.18,1.54.08.69.15,1.39.21,2.08s.12,1.25.17,1.87v0C2019.84,484.88,2019.87,485.24,2019.88,485.57Z"/><path class="cls-4" d="M2020.3,496.65c0,3.74-.13,7.46-.42,11.19-2.64,35.34-17.85,69.54-45.66,91.79A111.28,111.28,0,0,1,1949,614.81l-811,602.25c-82.25,35.69-173.21,35-255.05-1.92L70,598A112.6,112.6,0,0,1,45.25,582.7C19.16,561.4,4.4,529.61.84,496.39c-.13-1.34-.25-2.67-.36-4,0-.19,0-.39-.06-.6l-.09-1.39c0-.63-.09-1.29-.12-1.94v-.07c-.06-1.11-.1-2.23-.13-3.36a5.43,5.43,0,0,1,0-.57c0-1.32-.06-2.62-.06-3.94q0-5.61.42-11.21h0c.32-4.24.81-8.46,1.5-12.65h0c3.94-24.23,13.91-47.29,29.88-65.53q.73-.87,1.53-1.71,3.09-3.4,6.47-6.56c1.68-1.56,3.42-3.09,5.22-4.56a110.57,110.57,0,0,1,28.65-17L925.38,16.31a219.41,219.41,0,0,1,169.1,1.29L1948,378.06c1.51.63,3,1.3,4.45,2,1.23.58,2.45,1.18,3.65,1.8q4.72,2.47,9.11,5.3l1.68,1.12a113.72,113.72,0,0,1,33,34.4c.78,1.25,1.54,2.5,2.28,3.79a127.66,127.66,0,0,1,7.26,14.75c.24.55.47,1.12.69,1.69.56,1.37,1.09,2.74,1.58,4.11.17.43.32.84.45,1.27,1.43,4,2.66,8.12,3.71,12.27.16.64.32,1.29.46,1.92.37,1.5.7,3,1,4.48l.45,2.27c.06.37.13.75.21,1.15v0c.19,1.05.36,2.09.52,3.14.29,1.84.54,3.65.75,5.49.08.51.14,1,.18,1.54.08.69.15,1.39.21,2.08s.12,1.25.17,1.87v0c0,.28,0,.55.07.83,0,.62.09,1.23.12,1.85a4,4,0,0,1,0,.48c.09,1.44.15,2.88.2,4.34S2020.3,495.12,2020.3,496.65Z"/><path class="cls-5" d="M1138,1512l811-351.74c95.59-41.46,95-196.25-.91-236.75L1094.47,563a219.38,219.38,0,0,0-169.09-1.29L73.66,906.69c-96.38,39-98.78,193.84-3.66,236.74l812.92,366.65C964.77,1547,1055.72,1547.68,1138,1512Z"/><text class="cls-6" transform="matrix(2.83, 0.15, -0.04, 1, 624.18, 636.62)">S</text><path class="cls-7" d="M2019.89,1221.51c.08,48.83-23.67,97.72-71.36,118.41l-811,351.73c-82.27,35.69-173.22,35-255.07-1.91L69.58,1323.08C27.91,1304.28,5,1264,.42,1221.39V1041.86c4.53,42.61,27.49,82.89,69.16,101.68L882.5,1510.2c81.85,36.92,172.8,37.6,255.07,1.92l811-351.74c47.69-20.68,71.44-69.57,71.36-118.41Z"/><path class="cls-8" d="M2019.88,446.57v38.81q-.11-1.36-.24-2.73c-.06-.69-.13-1.39-.21-2.08,0-.51-.1-1-.18-1.54-.21-1.84-.46-3.65-.75-5.49-.16-1.05-.33-2.09-.52-3.14v0A149.21,149.21,0,0,0,2019.88,446.57Z"/><path class="cls-9" d="M2019.88,485.38v391a147.56,147.56,0,0,1-1,17.21c-4.88,42.77-28.33,83-70.39,101.21l-810.95,351.73c-82.27,35.68-173.23,35-255.07-1.92L69.58,977.9C29.05,959.63,6.23,921,.84,879.71c-.1-.79-.21-1.58-.28-2.39-.06-.36-.09-.73-.14-1.09v-407c.32-4.24.81-8.46,1.5-12.65C8.62,494,29.86,528.29,65.85,546.1c1.23.6,2.47,1.2,3.73,1.77L882.51,914.52c81.84,36.92,172.8,37.61,255.07,1.92l811-351.73c2-.85,3.93-1.78,5.84-2.74,36.22-18.22,57.42-53.45,63.61-91.57.19,1.05.36,2.09.52,3.14.29,1.84.54,3.65.75,5.49.08.51.14,1,.18,1.54.08.69.15,1.39.21,2.08s.12,1.25.17,1.87v0C2019.84,484.83,2019.85,485.1,2019.88,485.38Z"/><polyline class="cls-10" points="1520.58 1111.58 1607.42 978.76 1696.16 1031.68"/><ellipse class="cls-11" cx="1277.67" cy="1056.87" rx="47.9" ry="122.26"/><ellipse class="cls-12" cx="1292.94" cy="1056.87" rx="47.9" ry="122.26"/><ellipse class="cls-13" cx="1308.22" cy="1056.87" rx="47.9" ry="122.26"/><ellipse class="cls-11" cx="1786.06" cy="838.23" rx="44.32" ry="113.14"/><ellipse class="cls-12" cx="1800.88" cy="842.8" rx="44.55" ry="113.72"/><ellipse class="cls-13" cx="1815.71" cy="847.36" rx="44.78" ry="114.31"/><text class="cls-14" transform="matrix(2.83, 0.15, -0.04, 1, 624.44, 580.22)">S</text><polyline class="cls-15" points="1534.77 1121 1621.61 988.19 1710.35 1041.11"/><line class="cls-15" x1="1196.68" y1="974.67" x2="1360.73" y2="908.96"/><line class="cls-15" x1="1729.7" y1="765.92" x2="1863.88" y2="700.18"/><text class="cls-16" transform="translate(2276.69 1101.19)">STU<tspan class="cls-17" x="1217.4" y="0">D</tspan><tspan class="cls-18" x="1700.73" y="0">YB</tspan><tspan class="cls-19" x="2522.03" y="0">O</tspan><tspan x="3044.12" y="0">T</tspan></text></g></g></svg>